<svg xmlns="http://www.w3.org/2000/svg" viewBox="0 0 200 200"><path d="M31.1 179.5c-5.8 0-10.5-4.7-10.5-10.5V36c0-5.8 4.7-10.5 10.5-10.5h138.8c5.8 0 10.5 4.7 10.5 10.5v133c0 5.8-4.7 10.5-10.5 10.5H31.1z" fill='#fff' /><path d="M169.9 27c5 0 9 4 9 9v133c0 5-4 9-9 9H31.1c-5 0-9-4-9-9V36c0-5 4-9 9-9h138.8m0-3H31.1c-6.6 0-12 5.4-12 12v133c0 6.6 5.4 12 12 12h138.8c6.6 0 12-5.4 12-12V36c0-6.6-5.4-12-12-12z" fill='#fff'/><path d="M39 171.9c-5.8 0-10.5-4.7-10.5-10.5V43.6c0-5.8 4.7-10.5 10.5-10.5h123c5.8 0 10.5 4.7 10.5 10.5v117.8c0 5.8-4.7 10.5-10.5 10.5H39z" fill='#fff' /><path d="M162 34.6c5 0 9 4 9 9v117.8c0 5-4 9-9 9H39c-5 0-9-4-9-9V43.6c0-5 4-9 9-9h123m0-3H39c-6.6 0-12 5.4-12 12v117.8c0 6.6 5.4 12 12 12h123c6.6 0 12-5.4 12-12V43.6c0-6.6-5.4-12-12-12z"/><path d="M73.7 40h5v5h-5v-5zm9.9 0h5v5h-5v-5zm19.9 0h5v5h-5v-5zm9.9 0h5v5h-5v-5zm9.9 0h5v5h-5v-5zM44 45h5v5h-5v-5zm4.9 0h5v5h-5v-5zm5 0h5v5h-5v-5zm4.9 0h5v5h-5v-5zm5 0h5v5h-5v-5zm9.9 0h5v5h-5v-5zm5 0h5v5h-5v-5zm14.9 0h5v5h-5v-5zm4.9 0h5v5h-5v-5zm5 0h5v5h-5v-5zm4.9 0h5v5h-5v-5zm5 0h5v5h-5v-5zm9.9 0h5v5h-5v-5zm9.9 0h5v5h-5v-5zm5 0h5v5h-5v-5zm5 0h5v5h-5v-5zm4.9 0h5v5h-5v-5zm5 0h5v5h-5v-5zM44 49.9h5v5h-5v-5zm19.8 0h5v5h-5v-5zm9.9 0h5v5h-5v-5zm5 0h5v5h-5v-5zm4.9 0h5v5h-5v-5zm14.9 0h5v5h-5v-5zm9.9 0h5v5h-5v-5zm14.9 0h5v5h-5v-5zm9.9 0h5v5h-5v-5zm19.9 0h5v5h-5v-5zM44 54.9h5v5h-5v-5zm19.8 0h5v5h-5v-5zm9.9 0h5v5h-5v-5zm5 0h5v5h-5v-5zm4.9 0h5v5h-5v-5zm5 0h5v5h-5v-5zm19.8 0h5v5h-5v-5zm5 0h5v5h-5v-5zm9.9 0h5v5h-5v-5zm9.9 0h5v5h-5v-5zm19.9 0h5v5h-5v-5zM44 59.8h5v5h-5v-5zm19.8 0h5v5h-5v-5zm9.9 0h5v5h-5v-5zm5 0h5v5h-5v-5zm9.9 0h5v5h-5v-5zm5 0h5v5h-5v-5zm9.9 0h5v5h-5v-5zm4.9 0h5v5h-5v-5zm5 0h5v5h-5v-5zm9.9 0h5v5h-5v-5zm9.9 0h5v5h-5v-5zm19.9 0h5v5h-5v-5zM44 64.8h5v5h-5v-5zm4.9 0h5v5h-5v-5zm5 0h5v5h-5v-5zm4.9 0h5v5h-5v-5zm5 0h5v5h-5v-5zm9.9 0h5v5h-5v-5zm5 0h5v5h-5v-5zm4.9 0h5v5h-5v-5zm29.8 0h5v5h-5v-5zm9.9 0h5v5h-5v-5zm9.9 0h5v5h-5v-5zm5 0h5v5h-5v-5zm5 0h5v5h-5v-5zm4.9 0h5v5h-5v-5zm5 0h5v5h-5v-5zm-79.4 5h5v5h-5v-5zm9.9 0h5v5h-5v-5zm10 0h5v5h-5v-5zm9.9 0h5v5h-5v-5zm9.9 0h5v5h-5v-5zm9.9 0h5v5h-5v-5zM39 74.7h5v5h-5v-5zm5 0h5v5h-5v-5zm4.9 0h5v5h-5v-5zm5 0h5v5h-5v-5zm4.9 0h5v5h-5v-5zm5 0h5v5h-5v-5zm5 0h5v5h-5v-5zm4.9 0h5v5h-5v-5zm9.9 0h5v5h-5v-5zm10 0h5v5h-5v-5zm19.8 0h5v5h-5v-5zm9.9 0h5v5h-5v-5zm5 0h5v5h-5v-5zm4.9 0h5v5h-5v-5zm5 0h5v5h-5v-5zm5 0h5v5h-5v-5zm4.9 0h5v5h-5v-5zm5 0h5v5h-5v-5zm4.9 0h5v5h-5v-5zm-109.1 5h5v5h-5v-5zm14.9 0h5v5h-5v-5zm9.9 0h5v5h-5v-5zm5 0h5v5h-5v-5zm14.9 0h5v5h-5v-5zm4.9 0h5v5h-5v-5zm5 0h5v5h-5v-5zm9.9 0h5v5h-5v-5zm9.9 0h5v5h-5v-5zm9.9 0h5v5h-5v-5zm5 0h5v5h-5v-5zm5 0h5v5h-5v-5zm4.9 0h5v5h-5v-5zm5 0h5v5h-5v-5zM39 84.6h5v5h-5v-5zm9.9 0h5v5h-5v-5zm5 0h5v5h-5v-5zm4.9 0h5v5h-5v-5zm10 0h5v5h-5v-5zm4.9 0h5v5h-5v-5zm14.9 0h5v5h-5v-5zm9.9 0h5v5h-5v-5zm5 0h5v5h-5v-5zm14.9 0h5v5h-5v-5zm9.9 0h5v5h-5v-5zm29.7 0h5v5h-5v-5zm-119 5h5v5h-5v-5zm34.7 0h5v5h-5v-5zm9.9 0h5v5h-5v-5zm19.9 0h5v5h-5v-5zm4.9 0h5v5h-5v-5zm14.9 0h5v5h-5v-5zm9.9 0h5v5h-5v-5zm14.9 0h5v5h-5v-5zm5 0h5v5h-5v-5zm-99.2 5h5v5h-5v-5zm14.9 0h5v5h-5v-5zm4.9 0h5v5h-5v-5zm5 0h5v5h-5v-5zm24.8 0h5v5h-5v-5zm9.9 0h5v5h-5v-5zm9.9 0h5v5h-5v-5zm9.9 0h5v5h-5v-5zM39 99.5h5v5h-5v-5zm34.7 0h5v5h-5v-5zm5 0h5v5h-5v-5zm9.9 0h5v5h-5v-5zm9.9 0h5v5h-5v-5zm5 0h5v5h-5v-5zm4.9 0h5v5h-5v-5zm5 0h5v5h-5v-5zm9.9 0h5v5h-5v-5zm14.9 0h5v5h-5v-5zm5 0h5v5h-5v-5zm4.9 0h5v5h-5v-5zm5 0h5v5h-5v-5zm-109.1 5h5v5h-5v-5zm4.9 0h5v5h-5v-5zm5 0h5v5h-5v-5zm4.9 0h5v5h-5v-5zm5 0h5v5h-5v-5zm5 0h5v5h-5v-5zm4.9 0h5v5h-5v-5zm9.9 0h5v5h-5v-5zm5 0h5v5h-5v-5zm9.9 0h5v5h-5v-5zm9.9 0h5v5h-5v-5zm14.9 0h5v5h-5v-5zm5 0h5v5h-5v-5zm4.9 0h5v5h-5v-5zm10 0h5v5h-5v-5zm4.9 0h5v5h-5v-5zm9.9 0h5v5h-5v-5zm-99.2 4.9h5v5h-5v-5zm19.9 0h5v5h-5v-5zm4.9 0h5v5h-5v-5zm10 0h5v5h-5v-5zm4.9 0h5v5h-5v-5zm5 0h5v5h-5v-5zm4.9 0h5v5h-5v-5zm24.8 0h5v5h-5v-5zm-89.2 5h5v5h-5v-5zm4.9 0h5v5h-5v-5zm5 0h5v5h-5v-5zm4.9 0h5v5h-5v-5zm10 0h5v5h-5v-5zm14.8 0h5v5h-5v-5zm5 0h5v5h-5v-5zm5 0h5v5h-5v-5zm9.9 0h5v5h-5v-5zm14.9 0h5v5h-5v-5zm9.9 0h5v5h-5v-5zm9.9 0h5v5h-5v-5zm14.9 0h5v5h-5v-5zm-109.1 5h5v5h-5v-5zm4.9 0h5v5h-5v-5zm5 0h5v5h-5v-5zm9.9 0h5v5h-5v-5zm9.9 0h5v5h-5v-5zm5 0h5v5h-5v-5zm4.9 0h5v5h-5v-5zm5 0h5v5h-5v-5zm19.8 0h5v5h-5v-5zm34.8 0h5v5h-5v-5zm14.8 0h5v5h-5v-5zm-119 4.9h5v5h-5v-5zm5 0h5v5h-5v-5zm4.9 0h5v5h-5v-5zm5 0h5v5h-5v-5zm4.9 0h5v5h-5v-5zm5 0h5v5h-5v-5zm5 0h5v5h-5v-5zm4.9 0h5v5h-5v-5zm14.9 0h5v5h-5v-5zm5 0h5v5h-5v-5zm4.9 0h5v5h-5v-5zm5 0h5v5h-5v-5zm4.9 0h5v5h-5v-5zm14.9 0h5v5h-5v-5zm5 0h5v5h-5v-5zm4.9 0h5v5h-5v-5zm10 0h5v5h-5v-5zm14.8 0h5v5h-5v-5zm-84.3 5h5v5h-5v-5zm5 0h5v5h-5v-5zm4.9 0h5v5h-5v-5zm19.9 0h5v5h-5v-5zm9.9 0h5v5h-5v-5zm9.9 0h5v5h-5v-5zm9.9 0h5v5h-5v-5zm10 0h5v5h-5v-5zm4.9 0h5v5h-5v-5zm5 0h5v5h-5v-5zM44 134.2h5v5h-5v-5zm4.9 0h5v5h-5v-5zm5 0h5v5h-5v-5zm4.9 0h5v5h-5v-5zm5 0h5v5h-5v-5zm9.9 0h5v5h-5v-5zm5 0h5v5h-5v-5zm19.8 0h5v5h-5v-5zm9.9 0h5v5h-5v-5zm14.9 0h5v5h-5v-5zm5 0h5v5h-5v-5zm4.9 0h5v5h-5v-5zm10 0h5v5h-5v-5zm4.9 0h5v5h-5v-5zm-104.1 5h5v5h-5v-5zm19.8 0h5v5h-5v-5zm9.9 0h5v5h-5v-5zm29.8 0h5v5h-5v-5zm39.7 0h5v5h-5v-5zm4.9 0h5v5h-5v-5zm9.9 0h5v5h-5v-5zm-114 5h5v5h-5v-5zm19.8 0h5v5h-5v-5zm9.9 0h5v5h-5v-5zm9.9 0h5v5h-5v-5zm19.9 0h5v5h-5v-5zm29.7 0h5v5h-5v-5zm5 0h5v5h-5v-5zm5 0h5v5h-5v-5zm4.9 0h5v5h-5v-5zM44 149.1h5v5h-5v-5zm19.8 0h5v5h-5v-5zm9.9 0h5v5h-5v-5zm5 0h5v5h-5v-5zm4.9 0h5v5h-5v-5zm5 0h5v5h-5v-5zm14.9 0h5v5h-5v-5zm4.9 0h5v5h-5v-5zm10 0h5v5h-5v-5zm9.9 0h5v5h-5v-5zm4.9 0h5v5h-5v-5zm-89.2 5h5v5h-5v-5zm4.9 0h5v5h-5v-5zm5 0h5v5h-5v-5zm4.9 0h5v5h-5v-5zm5 0h5v5h-5v-5zm9.9 0h5v5h-5v-5zm24.8 0h5v5h-5v-5zm5 0h5v5h-5v-5zm9.9 0h5v5h-5v-5zm5 0h5v5h-5v-5zm4.9 0h5v5h-5v-5zm5 0h5v5h-5v-5zm14.9 0h5v5h-5v-5zM73.7 159h5v5h-5v-5zm9.9 0h5v5h-5v-5zm10 0h5v5h-5v-5zm9.9 0h5v5h-5v-5zm4.9 0h5v5h-5v-5zm5 0h5v5h-5v-5zm9.9 0h5v5h-5v-5zm5 0h5v5h-5v-5zm4.9 0h5v5h-5v-5zm5 0h5v5h-5v-5zm9.9 0h5v5h-5v-5zm5 0h5v5h-5v-5z" fill='#fff'/><path d="M40 43h4.8v4.8H40V43zm4.8 0h4.8v4.8h-4.8V43zm4.7 0h4.8v4.8h-4.8V43zm4.8 0H59v4.8h-4.8V43zm4.7 0h4.8v4.8H59V43zm4.8 0h4.8v4.8h-4.8V43zm4.8 0h4.8v4.8h-4.8V43zm9.5 0h4.8v4.8h-4.8V43zm9.5 0h4.8v4.8h-4.8V43zm4.8 0h4.8v4.8h-4.8V43zm4.7 0h4.8v4.8h-4.8V43zm9.5 0h4.8v4.8h-4.8V43zm9.6 0h4.8v4.8h-4.8V43zm9.5 0h4.8v4.8h-4.8V43zm4.7 0h4.8v4.8h-4.8V43zm4.8 0h4.8v4.8h-4.8V43zm4.8 0h4.8v4.8H140V43zm4.7 0h4.8v4.8h-4.8V43zm4.8 0h4.8v4.8h-4.8V43zm4.7 0h4.8v4.8h-4.8V43zM40 47.8h4.8v4.8H40v-4.8zm28.6 0h4.8v4.8h-4.8v-4.8zm14.2 0h4.8v4.8h-4.8v-4.8zm4.8 0h4.8v4.8h-4.8v-4.8zm28.6 0h4.8v4.8h-4.8v-4.8zm9.5 0h4.8v4.8h-4.8v-4.8zm28.5 0h4.8v4.8h-4.8v-4.8zM40 52.5h4.8v4.8H40v-4.8zm9.5 0h4.8v4.8h-4.8v-4.8zm4.8 0H59v4.8h-4.8v-4.8zm4.7 0h4.8v4.8H59v-4.8zm9.6 0h4.8v4.8h-4.8v-4.8zm19 0h4.8v4.8h-4.8v-4.8zm4.8 0h4.8v4.8h-4.8v-4.8zm9.5 0h4.8v4.8h-4.8v-4.8zm9.5 0h4.8v4.8h-4.8v-4.8zm4.8 0h4.8v4.8h-4.8v-4.8zm9.5 0h4.8v4.8h-4.8v-4.8zm9.5 0h4.8v4.8h-4.8v-4.8zm4.8 0h4.8v4.8H140v-4.8zm4.7 0h4.8v4.8h-4.8v-4.8zm9.5 0h4.8v4.8h-4.8v-4.8zM40 57.3h4.8V62H40v-4.7zm9.5 0h4.8V62h-4.8v-4.7zm4.8 0H59V62h-4.8v-4.7zm4.7 0h4.8V62H59v-4.7zm9.6 0h4.8V62h-4.8v-4.7zm23.8 0h4.8V62h-4.8v-4.7zm4.7 0h4.8V62h-4.8v-4.7zm4.8 0h4.8V62h-4.8v-4.7zm14.3 0h4.8V62h-4.8v-4.7zm9.5 0h4.8V62h-4.8v-4.7zm9.5 0h4.8V62h-4.8v-4.7zm4.8 0h4.8V62H140v-4.7zm4.7 0h4.8V62h-4.8v-4.7zm9.5 0h4.8V62h-4.8v-4.7zM40 62h4.8v4.8H40V62zm9.5 0h4.8v4.8h-4.8V62zm4.8 0H59v4.8h-4.8V62zm4.7 0h4.8v4.8H59V62zm9.6 0h4.8v4.8h-4.8V62zm14.2 0h4.8v4.8h-4.8V62zm14.3 0h4.8v4.8h-4.8V62zm19.1 0h4.8v4.8h-4.8V62zm9.5 0h4.8v4.8h-4.8V62zm9.5 0h4.8v4.8h-4.8V62zm4.8 0h4.8v4.8H140V62zm4.7 0h4.8v4.8h-4.8V62zm9.5 0h4.8v4.8h-4.8V62zM40 66.8h4.8v4.8H40v-4.8zm28.6 0h4.8v4.8h-4.8v-4.8zm19 0h4.8v4.8h-4.8v-4.8zm4.8 0h4.8v4.8h-4.8v-4.8zm4.7 0h4.8v4.8h-4.8v-4.8zm4.8 0h4.8v4.8h-4.8v-4.8zm4.7 0h4.8v4.8h-4.8v-4.8zm9.6 0h4.8v4.8h-4.8v-4.8zm9.5 0h4.8v4.8h-4.8v-4.8zm28.5 0h4.8v4.8h-4.8v-4.8zM40 71.6h4.8v4.8H40v-4.8zm4.8 0h4.8v4.8h-4.8v-4.8zm4.7 0h4.8v4.8h-4.8v-4.8zm4.8 0H59v4.8h-4.8v-4.8zm4.7 0h4.8v4.8H59v-4.8zm4.8 0h4.8v4.8h-4.8v-4.8zm4.8 0h4.8v4.8h-4.8v-4.8zm9.5 0h4.8v4.8h-4.8v-4.8zm9.5 0h4.8v4.8h-4.8v-4.8zm9.5 0h4.8v4.8h-4.8v-4.8zm9.5 0h4.8v4.8h-4.8v-4.8zm9.6 0h4.8v4.8h-4.8v-4.8zm9.5 0h4.8v4.8h-4.8v-4.8zm4.7 0h4.8v4.8h-4.8v-4.8zm4.8 0h4.8v4.8h-4.8v-4.8zm4.8 0h4.8v4.8H140v-4.8zm4.7 0h4.8v4.8h-4.8v-4.8zm4.8 0h4.8v4.8h-4.8v-4.8zm4.7 0h4.8v4.8h-4.8v-4.8zm-76.1 4.7h4.8v4.8h-4.8v-4.8zm9.5 0h4.8v4.8h-4.8v-4.8zm9.5 0h4.8v4.8h-4.8v-4.8zm4.8 0h4.8v4.8h-4.8v-4.8zm4.7 0h4.8v4.8h-4.8v-4.8zm9.6 0h4.8v4.8h-4.8v-4.8zM40 81.1h4.8v4.8H40v-4.8zm4.8 0h4.8v4.8h-4.8v-4.8zm9.5 0H59v4.8h-4.8v-4.8zm4.7 0h4.8v4.8H59v-4.8zm9.6 0h4.8v4.8h-4.8v-4.8zm14.2 0h4.8v4.8h-4.8v-4.8zm4.8 0h4.8v4.8h-4.8v-4.8zm19 0h4.8v4.8h-4.8v-4.8zm9.6 0h4.8v4.8h-4.8v-4.8zm9.5 0h4.8v4.8h-4.8v-4.8zm28.5 0h4.8v4.8h-4.8v-4.8zM44.8 85.8h4.8v4.8h-4.8v-4.8zm19 0h4.8v4.8h-4.8v-4.8zm14.3 0h4.8v4.8h-4.8v-4.8zm4.7 0h4.8v4.8h-4.8v-4.8zm9.6 0h4.8v4.8h-4.8v-4.8zm14.2 0h4.8v4.8h-4.8v-4.8zm4.8 0h4.8v4.8h-4.8v-4.8zm9.5 0h4.8v4.8h-4.8v-4.8zm9.5 0h4.8v4.8h-4.8v-4.8zm4.8 0h4.8v4.8h-4.8v-4.8zm4.8 0h4.8v4.8H140v-4.8zm4.7 0h4.8v4.8h-4.8v-4.8zm4.8 0h4.8v4.8h-4.8v-4.8zM44.8 90.6h4.8v4.8h-4.8v-4.8zm4.7 0h4.8v4.8h-4.8v-4.8zm4.8 0H59v4.8h-4.8v-4.8zm4.7 0h4.8v4.8H59v-4.8zm4.8 0h4.8v4.8h-4.8v-4.8zm4.8 0h4.8v4.8h-4.8v-4.8zm9.5 0h4.8v4.8h-4.8v-4.8zm9.5 0h4.8v4.8h-4.8v-4.8zm4.8 0h4.8v4.8h-4.8v-4.8zm4.7 0h4.8v4.8h-4.8v-4.8zm14.3 0h4.8v4.8h-4.8v-4.8zm4.8 0h4.8v4.8h-4.8v-4.8zm9.5 0h4.8v4.8h-4.8v-4.8zm9.5 0h4.8v4.8h-4.8v-4.8zm4.8 0h4.8v4.8H140v-4.8zm14.2 0h4.8v4.8h-4.8v-4.8zM40 95.4h4.8v4.8H40v-4.8zm4.8 0h4.8v4.8h-4.8v-4.8zm4.7 0h4.8v4.8h-4.8v-4.8zm9.5 0h4.8v4.8H59v-4.8zm4.8 0h4.8v4.8h-4.8v-4.8zm19 0h4.8v4.8h-4.8v-4.8zm4.8 0h4.8v4.8h-4.8v-4.8zm4.8 0h4.8v4.8h-4.8v-4.8zm4.7 0h4.8v4.8h-4.8v-4.8zm9.5 0h4.8v4.8h-4.8v-4.8zm9.6 0h4.8v4.8h-4.8v-4.8zm9.5 0h4.8v4.8h-4.8v-4.8zm9.5 0h4.8v4.8h-4.8v-4.8zm4.8 0h4.8v4.8H140v-4.8zm4.7 0h4.8v4.8h-4.8v-4.8zm4.8 0h4.8v4.8h-4.8v-4.8zm4.7 0h4.8v4.8h-4.8v-4.8zm-109.4 4.7h4.8v4.8h-4.8v-4.8zm4.7 0h4.8v4.8h-4.8v-4.8zm4.8 0H59v4.8h-4.8v-4.8zm4.7 0h4.8v4.8H59v-4.8zm4.8 0h4.8v4.8h-4.8v-4.8zm4.8 0h4.8v4.8h-4.8v-4.8zm14.2 0h4.8v4.8h-4.8v-4.8zm9.6 0h4.8v4.8h-4.8v-4.8zm23.8 0h4.8v4.8h-4.8v-4.8zm9.5 0h4.8v4.8h-4.8v-4.8zm4.7 0h4.8v4.8h-4.8v-4.8zm23.8 0h4.8v4.8h-4.8v-4.8zM40 104.9h4.8v4.8H40v-4.8zm38.1 0h4.8v4.8h-4.8v-4.8zm14.3 0h4.8v4.8h-4.8v-4.8zm9.5 0h4.8v4.8h-4.8v-4.8zm9.5 0h4.8v4.8h-4.8v-4.8zm4.8 0h4.8v4.8h-4.8v-4.8zm19 0h4.8v4.8h-4.8v-4.8zm14.3 0h4.8v4.8h-4.8v-4.8zM40 109.6h4.8v4.8H40v-4.8zm4.8 0h4.8v4.8h-4.8v-4.8zm4.7 0h4.8v4.8h-4.8v-4.8zm4.8 0H59v4.8h-4.8v-4.8zm9.5 0h4.8v4.8h-4.8v-4.8zm4.8 0h4.8v4.8h-4.8v-4.8zm4.7 0h4.8v4.8h-4.8v-4.8zm14.3 0h4.8v4.8h-4.8v-4.8zm23.8 0h4.8v4.8h-4.8v-4.8zm4.8 0h4.8v4.8h-4.8v-4.8zm4.7 0h4.8v4.8h-4.8v-4.8zm4.8 0h4.8v4.8h-4.8v-4.8zm9.5 0h4.8v4.8h-4.8v-4.8zm4.8 0h4.8v4.8H140v-4.8zm4.7 0h4.8v4.8h-4.8v-4.8zm4.8 0h4.8v4.8h-4.8v-4.8zm4.7 0h4.8v4.8h-4.8v-4.8zM40 114.4h4.8v4.8H40v-4.8zm23.8 0h4.8v4.8h-4.8v-4.8zm9.5 0h4.8v4.8h-4.8v-4.8zm4.8 0h4.8v4.8h-4.8v-4.8zm19 0h4.8v4.8h-4.8v-4.8zm9.5 0h4.8v4.8h-4.8v-4.8zm4.8 0h4.8v4.8h-4.8v-4.8zm9.5 0h4.8v4.8h-4.8v-4.8zm9.5 0h4.8v4.8h-4.8v-4.8zm9.6 0h4.8v4.8H140v-4.8zm4.7 0h4.8v4.8h-4.8v-4.8zm9.5 0h4.8v4.8h-4.8v-4.8zM40 119.2h4.8v4.8H40v-4.8zm19 0h4.8v4.8H59v-4.8zm9.6 0h4.8v4.8h-4.8v-4.8zm23.8 0h4.8v4.8h-4.8v-4.8zm4.7 0h4.8v4.8h-4.8v-4.8zm4.8 0h4.8v4.8h-4.8v-4.8zm9.5 0h4.8v4.8h-4.8v-4.8zm4.8 0h4.8v4.8h-4.8v-4.8zm4.7 0h4.8v4.8h-4.8v-4.8zm4.8 0h4.8v4.8h-4.8v-4.8zm4.7 0h4.8v4.8h-4.8v-4.8zm4.8 0h4.8v4.8h-4.8v-4.8zm9.5 0h4.8v4.8h-4.8v-4.8zm4.8 0h4.8v4.8h-4.8v-4.8zm-71.4 4.7h4.8v4.8h-4.8v-4.8zm4.7 0h4.8v4.8h-4.8v-4.8zm28.6 0h4.8v4.8h-4.8v-4.8zm4.8 0h4.8v4.8h-4.8v-4.8zm19 0h4.8v4.8h-4.8v-4.8zm9.5 0h4.8v4.8h-4.8v-4.8zm4.8 0h4.8v4.8h-4.8v-4.8zM40 128.7h4.8v4.8H40v-4.8zm4.8 0h4.8v4.8h-4.8v-4.8zm4.7 0h4.8v4.8h-4.8v-4.8zm4.8 0H59v4.8h-4.8v-4.8zm4.7 0h4.8v4.8H59v-4.8zm4.8 0h4.8v4.8h-4.8v-4.8zm4.8 0h4.8v4.8h-4.8v-4.8zm19 0h4.8v4.8h-4.8v-4.8zm4.8 0h4.8v4.8h-4.8v-4.8zm4.7 0h4.8v4.8h-4.8v-4.8zm9.5 0h4.8v4.8h-4.8v-4.8zm9.6 0h4.8v4.8h-4.8v-4.8zm9.5 0h4.8v4.8h-4.8v-4.8zm9.5 0h4.8v4.8h-4.8v-4.8zm19 0h4.8v4.8h-4.8v-4.8zM40 133.4h4.8v4.8H40v-4.8zm28.6 0h4.8v4.8h-4.8v-4.8zm14.2 0h4.8v4.8h-4.8v-4.8zm4.8 0h4.8v4.8h-4.8v-4.8zm4.8 0h4.8v4.8h-4.8v-4.8zm9.5 0h4.8v4.8h-4.8v-4.8zm9.5 0h4.8v4.8h-4.8v-4.8zm4.8 0h4.8v4.8h-4.8v-4.8zm19 0h4.8v4.8h-4.8v-4.8zm14.3 0h4.8v4.8h-4.8v-4.8zm4.7 0h4.8v4.8h-4.8v-4.8zM40 138.2h4.8v4.8H40v-4.8zm9.5 0h4.8v4.8h-4.8v-4.8zm4.8 0H59v4.8h-4.8v-4.8zm4.7 0h4.8v4.8H59v-4.8zm9.6 0h4.8v4.8h-4.8v-4.8zm9.5 0h4.8v4.8h-4.8v-4.8zm4.7 0h4.8v4.8h-4.8v-4.8zm4.8 0h4.8v4.8h-4.8v-4.8zm4.8 0h4.8v4.8h-4.8v-4.8zm4.7 0h4.8v4.8h-4.8v-4.8zm9.5 0h4.8v4.8h-4.8v-4.8zm4.8 0h4.8v4.8h-4.8v-4.8zm4.8 0h4.8v4.8h-4.8v-4.8zm4.7 0h4.8v4.8h-4.8v-4.8zm4.8 0h4.8v4.8h-4.8v-4.8zm4.7 0h4.8v4.8h-4.8v-4.8zm4.8 0h4.8v4.8h-4.8v-4.8zm14.3 0h4.8v4.8h-4.8v-4.8zM40 143h4.8v4.8H40V143zm9.5 0h4.8v4.8h-4.8V143zm4.8 0H59v4.8h-4.8V143zm4.7 0h4.8v4.8H59V143zm9.6 0h4.8v4.8h-4.8V143zm9.5 0h4.8v4.8h-4.8V143zm9.5 0h4.8v4.8h-4.8V143zm4.8 0h4.8v4.8h-4.8V143zm4.7 0h4.8v4.8h-4.8V143zm9.5 0h4.8v4.8h-4.8V143zm4.8 0h4.8v4.8h-4.8V143zm4.8 0h4.8v4.8h-4.8V143zm4.7 0h4.8v4.8h-4.8V143zm4.8 0h4.8v4.8h-4.8V143zm23.8 0h4.8v4.8h-4.8V143zm4.7 0h4.8v4.8h-4.8V143zM40 147.7h4.8v4.8H40v-4.8zm9.5 0h4.8v4.8h-4.8v-4.8zm4.8 0H59v4.8h-4.8v-4.8zm4.7 0h4.8v4.8H59v-4.8zm9.6 0h4.8v4.8h-4.8v-4.8zm23.8 0h4.8v4.8h-4.8v-4.8zm4.7 0h4.8v4.8h-4.8v-4.8zm14.3 0h4.8v4.8h-4.8v-4.8zm9.5 0h4.8v4.8h-4.8v-4.8zm14.3 0h4.8v4.8h-4.8v-4.8zm4.8 0h4.8v4.8H140v-4.8zm4.7 0h4.8v4.8h-4.8v-4.8zm4.8 0h4.8v4.8h-4.8v-4.8zm4.7 0h4.8v4.8h-4.8v-4.8zM40 152.5h4.8v4.8H40v-4.8zm28.6 0h4.8v4.8h-4.8v-4.8zm9.5 0h4.8v4.8h-4.8v-4.8zm4.7 0h4.8v4.8h-4.8v-4.8zm4.8 0h4.8v4.8h-4.8v-4.8zm4.8 0h4.8v4.8h-4.8v-4.8zm14.2 0h4.8v4.8h-4.8v-4.8zm23.8 0h4.8v4.8h-4.8v-4.8zm4.8 0h4.8v4.8h-4.8v-4.8zm9.5 0h4.8v4.8h-4.8v-4.8zm4.8 0h4.8v4.8h-4.8v-4.8zm4.7 0h4.8v4.8h-4.8v-4.8zM40 157.2h4.8v4.8H40v-4.8zm4.8 0h4.8v4.8h-4.8v-4.8zm4.7 0h4.8v4.8h-4.8v-4.8zm4.8 0H59v4.8h-4.8v-4.8zm4.7 0h4.8v4.8H59v-4.8zm4.8 0h4.8v4.8h-4.8v-4.8zm4.8 0h4.8v4.8h-4.8v-4.8zm9.5 0h4.8v4.8h-4.8v-4.8zm9.5 0h4.8v4.8h-4.8v-4.8zm9.5 0h4.8v4.8h-4.8v-4.8zm19.1 0h4.8v4.8h-4.8v-4.8zm23.8 0h4.8v4.8H140v-4.8zm14.2 0h4.8v4.8h-4.8v-4.8z"/></svg>